<?xml version="1.0" standalone="no"?>
<!DOCTYPE svg PUBLIC "-//W3C//DTD SVG 20010904//EN"
 "http://www.w3.org/TR/2001/REC-SVG-20010904/DTD/svg10.dtd">
<svg version="1.0" xmlns="http://www.w3.org/2000/svg"
 width="16.000000pt" height="16.000000pt" viewBox="0 0 16.000000 16.000000"
 preserveAspectRatio="xMidYMid meet">
<metadata>
Created by potrace 1.11, written by Peter Selinger 2001-2013
</metadata>
<g transform="translate(0.000000,16.000000) scale(0.003125,-0.003125)"
fill="#000000" stroke="none">
<path d="M512 4984 c-112 -31 -189 -111 -214 -224 -12 -58 -12 -73 3 -135 9
-38 28 -96 42 -129 15 -32 27 -62 27 -67 0 -5 -72 -9 -160 -9 l-160 0 0 -125
0 -125 218 0 217 0 32 -78 c18 -42 35 -85 39 -94 6 -17 -10 -18 -250 -18
l-256 0 0 -125 0 -125 312 -2 312 -3 742 -1730 c408 -952 755 -1749 771 -1773
39 -58 100 -99 174 -117 179 -42 343 7 418 123 49 77 1891 4316 1910 4397 15
62 15 77 3 135 -26 116 -102 194 -220 224 -84 22 -518 22 -611 1 -77 -18 -136
-59 -177 -122 -17 -27 -294 -651 -615 -1389 l-584 -1341 -576 1346 c-317 740
-590 1365 -605 1389 -40 59 -101 99 -175 117 -89 21 -540 20 -617 -1z m606
-424 l60 -140 -238 0 -237 0 -61 140 -60 140 238 0 237 0 61 -140z m2760
-1077 c-292 -670 -713 -1639 -937 -2153 l-407 -935 -52 0 -53 0 -708 1652
c-390 909 -711 1659 -714 1668 -6 13 22 15 231 15 l237 0 504 -1176 c478
-1115 505 -1174 516 -1147 7 15 329 753 715 1638 386 886 706 1620 711 1633 8
22 9 22 248 22 l239 0 -530 -1217z m-2550 592 l40 -95 -240 2 -240 3 -30 70
c-16 39 -34 80 -39 93 l-9 22 239 0 238 0 41 -95z"/>
</g>
</svg>
